<svg width="8" height="6" viewBox="0 0 8 6" fill="none" xmlns="http://www.w3.org/2000/svg">
<path d="M7.85805 2.61115C7.75415 2.62313 7.89145 2.60815 7.89887 2.66208C7.95453 2.67107 7.91372 2.64111 7.85805 2.61115Z" fill="#ED1C24"/>
<path d="M1.76834 4.40059V4.3976C1.75729 4.39161 1.74993 4.38562 1.73152 4.38562C1.72783 4.3976 1.74256 4.40059 1.76834 4.40059Z" fill="#ED1C24"/>
<path d="M4.51713 5.33279C4.52056 5.32701 4.52057 5.31834 4.524 5.31256C4.51714 5.31545 4.51028 5.31545 4.5 5.31834L4.51713 5.33279Z" fill="#ED1C24"/>
<path d="M7.68868 2.84059C7.60559 2.78858 7.60559 2.76104 7.50361 2.71209L7.52627 2.6815C7.61692 2.72127 7.66224 2.7794 7.73401 2.78858L7.56405 2.63255L7.65092 2.51017L6.96347 2.31743C7.17877 2.2593 7.26942 2.55912 7.54893 2.29601C7.7189 2.244 7.92287 1.87992 7.92287 1.87992C7.54515 1.92581 7.32985 1.69024 7.10322 1.40571C6.98613 1.40571 6.82371 1.42406 6.75194 1.33534C6.3289 1.25579 6.04182 0.845831 5.56967 0.855009C5.56967 0.90702 5.5168 0.974329 5.48659 0.989626L5.4979 0.946789L5.42614 1.03246C5.39214 1.03246 5.45637 0.916196 5.48659 0.910077C5.36571 0.882542 5.2486 0.855009 5.13528 0.830533C4.9842 0.796879 4.84066 0.757104 4.68579 0.698975C4.67069 0.78158 4.62159 0.760166 4.58004 0.754047C4.54605 0.766285 4.51962 0.78464 4.51584 0.858067C4.50073 0.830532 4.51204 0.821355 4.5196 0.787701C4.31563 0.922317 4.32698 0.925375 4.08901 0.790759C3.98325 0.802997 3.86237 0.824414 3.77171 0.839711C3.71506 0.84583 3.65839 0.855009 3.60174 0.864187C3.48842 0.885604 3.38266 0.916195 3.2769 0.946789C3.03894 1.01716 2.94828 1.05693 2.41947 1.17625C1.86421 1.34452 1.37319 1.54339 0.919922 1.72083C1.02191 1.97171 1.11633 2.21646 1.19565 2.45204C1.53182 2.61419 1.42228 2.71821 1.71313 2.84671L1.6187 2.83447C1.77356 2.93238 1.62249 2.93849 1.54317 3.06393C1.64893 3.06087 1.58472 3.10676 1.75091 3.08229C1.90578 3.10982 1.52805 3.16795 1.62248 3.22302C1.56582 3.2322 1.72447 3.21078 1.67158 3.22914C1.90955 3.33622 1.57715 3.23832 1.4525 3.40659C1.50538 3.48613 1.58471 3.55956 1.64514 3.6391C1.70558 3.72783 1.7358 3.7676 1.72447 3.93587C1.71314 3.92057 1.84157 3.88386 1.84913 3.90834C1.59227 4.00012 1.94356 3.97565 1.84913 4.04907C1.79624 4.06131 1.76979 4.04601 1.74335 4.03989C1.66781 4.19898 1.8529 4.24488 1.77358 4.41009C1.90578 4.47128 1.72825 4.71909 1.87179 4.72215C1.7698 4.76804 1.81513 4.82005 1.77358 4.88124C1.97377 4.80475 1.89444 4.94855 1.87933 5.06175C1.91332 5.08623 1.96242 5.0954 2.06441 5.04645L2.01532 5.08623C2.41949 5.11682 2.83875 5.23308 3.28068 5.16883C3.41288 5.17189 3.46577 5.23002 3.52621 5.27897C3.59042 5.32792 3.65839 5.36769 3.74149 5.31874C3.77549 5.28815 3.76416 5.22696 3.7906 5.20555C3.82459 5.21778 3.7755 5.28509 3.78306 5.31874C3.87371 5.2239 3.94169 5.36158 4.03234 5.37075C4.05123 5.33098 4.07767 5.3218 4.08145 5.25756C4.14566 5.44724 4.32696 5.22696 4.4025 5.37075C4.41383 5.13824 4.48561 5.2545 4.53094 5.2086C4.54982 5.22084 4.53849 5.28203 4.52338 5.32486C4.60648 5.30651 4.64804 5.30345 4.72358 5.37993C4.76891 5.35852 4.80669 5.2392 4.84823 5.27897C4.84823 5.43806 4.95022 5.29733 4.98799 5.36158C5.0031 5.2239 5.07864 5.12294 5.15041 5.19331L5.09752 5.38299C5.23728 5.3371 5.38837 5.38299 5.55457 5.41359C5.71699 5.44418 5.89829 5.46254 5.99272 5.3524L6.06071 5.47477C6.17402 5.43194 6.2949 5.44112 6.41955 5.4503C6.49509 5.32486 6.57818 5.19025 6.55552 4.97609C6.63862 4.97915 6.73305 4.92407 6.77082 4.869C6.73305 4.72521 6.76326 4.70686 6.64617 4.56C6.64995 4.52941 6.74816 4.5753 6.79349 4.58754C6.87281 4.53247 7.11833 4.50493 6.95969 4.37031L7.06546 4.41621C6.99369 4.32136 6.91435 4.19286 7.06922 4.19286C6.98989 4.13473 6.98991 4.06743 6.85394 4.03378C6.84638 4.00318 7.03901 4.10108 6.9408 4.02766L7.07678 4.11638C7.19765 4.01542 7.19387 3.87774 7.19387 3.72783C7.39406 3.77678 7.25054 3.60851 7.39786 3.59016C7.32609 3.50755 7.51116 3.50449 7.31474 3.37293L7.42052 3.41882C7.46962 3.37293 7.51871 3.30563 7.61692 3.25974C7.67358 3.23526 7.5225 3.16183 7.4885 3.10676L7.59425 3.15265C7.55648 3.09452 7.42428 3.01804 7.32984 2.95991L7.34119 2.94461C7.37141 2.93849 7.34497 2.91708 7.41674 2.9232C7.45451 2.97521 7.55272 3.04863 7.68115 3.12818C7.75291 3.10676 7.5225 2.94461 7.70003 2.99356C7.76424 2.9752 7.74158 2.92931 7.6056 2.86201C7.64337 2.88954 7.70381 2.8773 7.74913 2.9232C7.76424 2.89566 7.75668 2.87425 7.71891 2.83447C7.7038 2.83141 7.68868 2.83141 7.68868 2.84059ZM6.88792 2.29601L6.75572 2.2593C6.80105 2.24706 6.84638 2.2287 6.89548 2.19199C6.94081 2.17363 6.91058 2.244 6.88792 2.29601ZM5.69055 1.84321C5.68677 1.8738 5.66787 1.89216 5.65276 1.91664C5.8114 1.79426 5.77742 2.1308 5.97006 1.86462L6.04561 1.75143C6.04938 1.80344 6.0116 1.88604 6.0116 1.93193C6.06448 1.85851 6.10604 1.935 6.1627 1.83097C6.15137 1.88298 6.13248 1.89216 6.11737 1.92887C6.15137 1.96559 6.27601 1.80649 6.30245 1.85545L6.26845 1.9044C6.31755 2.00536 6.37801 2.10326 6.45355 2.17363L5.50925 1.90746C5.56213 1.89828 5.62256 1.87992 5.69055 1.84321ZM5.16173 1.73613C5.15795 1.75448 5.14662 1.77896 5.13528 1.80344L5.12018 1.80038C5.13529 1.78202 5.1504 1.76366 5.16173 1.73613ZM4.54228 1.63517C4.54228 1.64128 4.54228 1.64434 4.54228 1.65046L4.51584 1.65658C4.52339 1.64741 4.53095 1.64434 4.54228 1.63517ZM3.82838 1.84321L3.78684 1.85545C3.79817 1.84627 3.80948 1.83709 3.81326 1.82485C3.81704 1.83097 3.82083 1.83709 3.82838 1.84321ZM3.68863 1.87686L3.66596 1.88604C3.66596 1.8738 3.67352 1.86769 3.68863 1.87686ZM3.60174 1.85239C3.61307 1.87074 3.6093 1.88298 3.61686 1.90134L3.60174 1.9044C3.59796 1.8891 3.60174 1.8738 3.60174 1.85239ZM3.37511 1.93193L3.38267 1.96253L3.34489 1.97171C3.32978 1.92887 3.32223 1.89522 3.37511 1.93193ZM3.31469 1.98088C3.31091 1.97782 3.31091 1.97783 3.31091 1.97171C3.31468 1.97477 3.31469 1.97782 3.31469 1.98088ZM2.90674 2.09102L2.86895 2.1002C2.8614 2.09408 2.8614 2.08797 2.85007 2.07879C2.86518 2.06349 2.88408 2.07573 2.90674 2.09102ZM2.44213 2.01454C2.54411 2.08185 2.41192 2.0176 2.47991 2.07573L2.61967 2.14915C2.61589 2.15221 2.62345 2.16139 2.62723 2.16751L2.47235 2.21034C2.4308 2.16751 2.38926 2.12468 2.36282 2.08797C2.4157 2.10326 2.41946 2.02984 2.44213 2.01454ZM2.37038 2.23788C2.35527 2.2287 2.34015 2.21952 2.32882 2.21034C2.33259 2.21646 2.34772 2.22564 2.37038 2.23788ZM7.39786 2.85589L7.41674 2.83141C7.42429 2.84671 7.41674 2.85283 7.39786 2.85589ZM7.4885 2.74269C7.48473 2.74269 7.48472 2.73963 7.48094 2.73963L7.49229 2.72433C7.49984 2.73351 7.49984 2.73963 7.4885 2.74269Z" fill="#ED1C24"/>
<path d="M7.69531 2.81305C7.70139 2.81793 7.70139 2.82282 7.70747 2.8277C7.71051 2.82526 7.71356 2.82037 7.69531 2.81305Z" fill="#ED1C24"/>
<path d="M7.88394 2.7148C7.81263 2.67821 7.71504 2.65076 7.63623 2.61722C7.73005 2.69345 7.79387 2.68431 7.88394 2.7148Z" fill="#ED1C24"/>
</svg>
