<svg width="32" height="32" viewBox="0 0 32 32" fill="none" xmlns="http://www.w3.org/2000/svg">
<g clip-path="url(#clip0_194_2364)">
<path d="M16 0C7.17776 0 0 7.17776 0 16C0 24.8222 7.17776 32 16 32C24.8222 32 32 24.8222 32 16C32 7.17776 24.8222 0 16 0ZM16 30C8.28027 30 2.00001 23.7197 2.00001 16C2.00001 8.28027 8.28027 2.00001 16 2.00001C23.7197 2.00001 30 8.28027 30 16C30 23.7197 23.7197 30 16 30Z" fill="#090909"/>
<line x1="9.70711" y1="14.2929" x2="15.7071" y2="20.2929" stroke="#090909" stroke-width="2"/>
<line x1="15.3861" y1="19.2106" x2="24.3861" y2="12.2106" stroke="#090909" stroke-width="2"/>
</g>
<defs>
<clipPath id="clip0_194_2364">
<rect width="32" height="32" fill="white"/>
</clipPath>
</defs>
</svg>
