<svg width="22" height="22" viewBox="0 0 22 22" fill="none" xmlns="http://www.w3.org/2000/svg">
<g clip-path="url(#clip0_4877_2403)">
<path d="M16.0734 14.2229C17.3988 12.4061 17.9924 10.1536 17.7355 7.91597C17.4786 5.67838 16.3902 3.62073 14.6879 2.1547C12.9856 0.68866 10.7951 -0.0776511 8.5545 0.00907452C6.31393 0.0958001 4.18857 1.02917 2.60364 2.62244C1.01871 4.21572 0.0910899 6.3514 0.00636007 8.60221C-0.0783698 10.853 0.686041 13.053 2.14666 14.762C3.60728 16.4709 5.6564 17.5629 7.88405 17.8193C10.1117 18.0758 12.3536 17.4778 14.1612 16.1451H14.1599C14.2009 16.2001 14.2447 16.2524 14.294 16.3033L19.5638 21.597C19.8205 21.855 20.1686 22 20.5317 22.0002C20.8948 22.0003 21.2431 21.8555 21.4999 21.5977C21.7568 21.3399 21.9011 20.9901 21.9013 20.6254C21.9014 20.2606 21.7573 19.9108 21.5006 19.6528L16.2308 14.359C16.1819 14.3093 16.1293 14.2647 16.0734 14.2229ZM16.4266 8.93739C16.4266 9.93052 16.2318 10.9139 15.8535 11.8314C15.4752 12.749 14.9207 13.5826 14.2216 14.2849C13.5225 14.9871 12.6926 15.5442 11.7792 15.9242C10.8659 16.3043 9.88692 16.4999 8.89829 16.4999C7.90966 16.4999 6.93071 16.3043 6.01734 15.9242C5.10397 15.5442 4.27405 14.9871 3.57499 14.2849C2.87592 13.5826 2.32139 12.749 1.94306 11.8314C1.56473 10.9139 1.37001 9.93052 1.37001 8.93739C1.37001 6.93169 2.16316 5.00814 3.57499 3.5899C4.98682 2.17166 6.90166 1.37489 8.89829 1.37489C10.8949 1.37489 12.8098 2.17166 14.2216 3.5899C15.6334 5.00814 16.4266 6.93169 16.4266 8.93739Z" fill="#5A5A5A"/>
</g>
<defs>
<clipPath id="clip0_4877_2403">
<rect width="21.9005" height="22" fill="white"/>
</clipPath>
</defs>
</svg>
