<svg width="124" height="63" viewBox="0 0 124 63" fill="none" xmlns="http://www.w3.org/2000/svg">
<path d="M79.612 32.3336C80.2476 33.2958 78.5822 43.3216 76.3534 40.4635C75.7283 39.4226 75.5324 38.1741 74.1013 37.6357C73.2115 40.2303 75.3784 42.9187 75.2186 45.5845C75.2 46.2082 74.8594 46.6092 74.022 46.4338C72.7426 46.1656 72.4721 46.759 72.2482 47.5961C71.6499 49.8361 71.272 52.1587 70.248 54.2689C66.4623 63.1609 53.7955 65.8787 45.3937 59.3093C42.443 57.2503 40.2399 54.5457 37.3919 52.4165C34.9556 51.2041 32.3886 50.1366 30.5879 48.1118C28.674 51.7236 26.6576 55.56 21.3032 55.889C17.8581 56.234 14.3359 56.6862 10.9059 55.652C4.29787 54.1617 1.23758 48.3393 0.767578 43.1813C0.786238 40.107 0.825891 37.0309 0.979839 33.9594C1.17111 28.6138 6.83217 24.1355 13.4519 24.1621C14.3476 24.108 14.6765 23.817 14.8211 23.124C15.6153 15.8682 20.6781 7.64075 30.7663 7.21701C32.4831 7.25872 34.3339 6.45673 35.7545 7.56681C34.1543 10.606 26.1106 7.71185 21.5656 13.0309C19.1876 15.4227 13.4939 22.5458 19.0348 24.3166C21.8514 25.4674 24.921 25.3499 27.9626 24.9802C32.4376 23.9877 34.9556 27.5672 39.0247 27.6715C43.825 27.79 51.1574 28.173 51.4606 22.9316C51.6064 22.3714 51.6705 21.5959 52.6304 21.7229C53.6147 21.8528 52.9522 22.561 52.9826 23.0112C52.8321 24.6105 52.5347 26.2685 54.8649 26.7861C57.0249 27.4222 59.2688 27.8952 61.3657 28.6432C67.0664 30.4453 69.6882 35.2724 76.4047 34.3784C78.2369 34.4637 78.3804 33.2949 79.612 32.3336ZM56.1222 61.319C67.9866 61.4555 72.1572 49.8674 70.7833 42.0466C70.1185 36.7616 65.7462 32.5697 59.9918 30.2159C45.7692 24.4019 36.0705 40.9669 40.3204 50.3234C42.4792 55.5268 49.0103 61.4981 56.1222 61.319ZM29.0158 39.4463C29.0892 36.6469 28.428 33.9319 27.1241 31.2084C24.0638 25.6713 15.4112 23.6653 9.19969 26.6932C-2.78021 31.3402 0.316232 53.2906 13.8473 54.6225C26.731 57.0379 29.3645 47.8757 29.0158 39.4463ZM33.065 34.5917C31.5034 32.473 29.7353 27.353 27.3713 26.2514C26.7194 26.1206 25.5799 26.6704 26.0196 27.3312C27.0004 28.3455 31.2935 37.7125 31.5197 40.3137C31.7028 42.4154 31.7087 42.3879 34.299 42.3955C35.1935 42.3983 35.4197 42.113 35.5165 41.4352C36.2303 36.9474 38.7494 33.0446 42.4593 29.7068C39.6696 29.7438 37.0047 28.701 36.6991 31.6189C36.2105 33.7433 33.5292 35.9132 33.065 34.5917Z" fill="white"/>
<path d="M90.9526 4.74658C93.6199 5.40826 96.0306 4.63851 98.4786 4.35411C103.638 3.75499 108.799 3.15492 113.932 2.42783C116.199 2.42309 121.939 -0.199017 123.262 1.1035C123.871 1.65238 123.68 3.15871 122.953 4.04602C118.829 9.05702 109.187 9.93295 102.671 12.3465C101.475 12.6935 101.405 13.6538 100.599 14.2007C99.113 15.2084 99.6507 16.5764 100.094 17.7784C100.802 19.9806 103.211 29.9665 99.3509 30.1874C89.2697 32.3716 80.4562 26.3841 72.1244 22.7088C71.434 24.2512 72.7565 25.9557 72.0078 27.3587C70.4613 27.6857 69.3312 25.786 68.7784 24.9091C67.892 23.1601 66.594 15.1847 71.2357 17.6988C72.3798 18.4192 73.4435 19.2516 74.7567 19.7635C74.8616 19.7075 74.9666 19.6516 75.0716 19.5947C74.0056 17.4324 73.2277 13.8519 69.5528 14.069C68.9312 14.0898 68.0798 14.4557 67.6984 13.65C69.8035 13.0945 72.2317 12.8868 74.212 13.9372C74.3706 14.0301 74.7788 13.9922 74.9549 13.887C79.4043 11.7578 82.243 8.1555 86.7739 6.12967C87.4118 5.86898 87.8959 5.30873 88.3612 4.8281C89.0201 4.1484 88.7087 3.38433 87.6638 3.34262C83.7836 3.2118 80.5309 5.50685 76.8641 6.11356C72.9956 6.85867 69.4385 8.61527 65.2679 8.4124C62.0502 8.25598 58.8173 8.15076 55.5984 8.22565C51.0418 8.18773 40.1663 10.0913 36.6185 8.32993C36.4798 7.45968 37.1515 6.62641 38.4263 6.7942C45.7166 6.92787 52.9976 6.70509 60.2845 6.55721C64.3186 6.2804 68.6454 7.52983 72.3378 5.72773C73.2662 5.24047 74.4908 4.9684 75.6069 4.90678C78.8491 4.72762 81.6085 3.51515 84.4787 2.48755C87.3792 1.30447 92.1189 0.942346 90.9526 4.74658ZM121.497 3.7749C121.741 3.13596 121.453 2.05432 120.31 2.27236C115.394 3.55781 110.468 5.50116 105.158 4.7589C102.709 4.41952 88.7659 8.63707 87.6346 8.44842C87.5448 8.2939 87.455 8.14033 87.3652 7.98581C82.4785 12.1114 78.3336 14.87 77.9114 20.9816C78.0782 22.2661 80.6195 23.1809 81.7088 24.109C82.7584 24.6749 83.597 23.9355 83.3451 23.0738C82.7444 21.1589 84.6723 19.8753 84.8309 18.005C86.1966 18.8363 86.2876 20.3711 86.6654 21.6035C87.1961 23.0842 85.3569 25.8609 87.2252 26.7349C88.7764 27.0193 92.0967 28.3967 95.4323 28.9882C98.4762 29.5968 99.6763 27.9018 99.5434 25.8286C99.0734 23.2397 99.4932 20.2062 98.2395 17.8135C97.324 16.9167 97.177 15.9953 97.24 14.9345C97.2551 14.6738 97.0429 14.2851 96.7828 14.1524C94.9086 13.0973 104.214 10.7947 106.554 10.2866C108.959 9.13666 119.724 6.62926 121.497 3.7749Z" fill="white"/>
<path d="M47.4879 12.5522C46.9304 13.6585 46.7648 14.6737 46.7286 15.8293C46.8348 19.06 42.5347 16.7176 44.2655 20.0004C44.655 21.4679 41.7557 21.1456 40.643 21.5731C38.1577 22.1173 42.2467 17.3319 42.4916 16.582C42.8158 16.1147 43.6753 15.9023 44.0497 15.4445C45.125 14.3353 45.4644 12.7304 46.9386 11.9132C47.124 12.1275 47.3071 12.3417 47.4879 12.5522Z" fill="white"/>
<path d="M45.2475 47.8615C42.999 45.849 42.333 42.6951 42.2969 40.0673C42.3505 35.8099 46.9818 30.341 52.7805 30.87C53.7625 31.1023 54.8692 31.3222 54.9509 32.3887C54.9964 32.9954 54.8273 33.3148 53.7706 33.258C50.3418 33.0437 45.3455 33.8922 44.711 37.1826C44.9513 40.6607 44.3157 44.281 45.4423 47.6539C45.377 47.7231 45.3117 47.7923 45.2475 47.8615Z" fill="white"/>
<path d="M51.3554 43.2022C51.296 39.5591 57.1366 42.2296 57.9192 44.3256C58.7099 46.2898 55.0327 46.7448 53.5935 47.7117C51.724 48.3696 51.9374 44.1502 51.3554 43.2022Z" fill="white"/>
<path d="M19.2458 41.584C19.0487 43.2401 17.7856 43.5548 16.1797 43.0363C14.2903 42.7443 14.0151 42.2779 14.9889 40.8844C15.4111 39.9809 17.1337 39.5676 18.0142 39.8824C18.6184 40.2179 18.8516 40.9962 19.2458 41.584Z" fill="white"/>
<path d="M13.6843 27.5985C9.83099 29.1636 7.66173 30.8652 5.55078 33.8523C5.97297 30.2178 9.62689 27.4573 13.6843 27.5985Z" fill="white"/>
<path d="M97.4282 33.2153C94.4782 30.936 89.8058 31.141 86.1154 30.0366C82.9766 29.3329 82.5838 29.4461 81.7112 32.0405C81.5224 32.5973 81.6697 33.2918 81.8963 33.8609C84.3213 37.8963 84.7519 42.2376 83.6112 46.6096C83.4638 47.4785 82.901 47.971 81.8925 48.1087C79.12 48.4911 76.4873 49.6262 73.5411 49.1275C72.6686 48.9807 72.2304 49.4029 72.6648 50.0209C75.2069 54.5305 79.6677 58.0274 86.2892 57.6664C100.121 58.0642 105.772 40.6773 97.4282 33.2153ZM90.1382 55.4208C85.258 56.4029 78.8859 53.2088 83.3619 52.0676C87.8379 50.9265 87.8492 42.6629 87.8492 42.6629C87.8492 42.6629 85.6357 34.0536 87.8492 33.2643C90.0626 32.4749 92.4687 33.1694 95.0712 36.0086C97.6737 38.8478 99.1695 44.1161 98.195 47.5427C97.2205 50.9693 95.0183 54.4387 90.1382 55.4208Z" fill="white"/>
</svg>
